<svg id="Layer_1" data-name="Layer 1" xmlns="http://www.w3.org/2000/svg" viewBox="0 0 400 250"><defs><style>.cls-1{fill:none;stroke:#1d1d1b;stroke-width:2px;}.cls-2{fill:#1d1d1b;}</style></defs><title>03</title><line class="cls-1" x1="8" y1="44" x2="392" y2="44"/><line class="cls-1" x1="8" y1="66" x2="392" y2="66"/><line class="cls-1" x1="134" y1="88" x2="70" y2="88"/><line class="cls-1" x1="252" y1="88" x2="187" y2="88"/><line class="cls-1" x1="329" y1="88" x2="304" y2="88"/><line class="cls-1" x1="392" y1="88" x2="343" y2="88"/><line class="cls-1" x1="290" y1="88" x2="266" y2="88"/><line class="cls-1" x1="173" y1="88" x2="148" y2="88"/><line class="cls-1" x1="56" y1="88" x2="8" y2="88"/><line class="cls-1" x1="134" y1="110" x2="70" y2="110"/><line class="cls-1" x1="252" y1="110" x2="187" y2="110"/><line class="cls-1" x1="329" y1="110" x2="304" y2="110"/><line class="cls-1" x1="392" y1="110" x2="343" y2="110"/><line class="cls-1" x1="290" y1="110" x2="266" y2="110"/><line class="cls-1" x1="173" y1="110" x2="148" y2="110"/><line class="cls-1" x1="56" y1="110" x2="8" y2="110"/><line class="cls-1" x1="134" y1="132" x2="70" y2="132"/><line class="cls-1" x1="252" y1="132" x2="187" y2="132"/><line class="cls-1" x1="329" y1="132" x2="304" y2="132"/><line class="cls-1" x1="392" y1="132" x2="343" y2="132"/><line class="cls-1" x1="290" y1="132" x2="266" y2="132"/><line class="cls-1" x1="173" y1="132" x2="148" y2="132"/><line class="cls-1" x1="56" y1="132" x2="8" y2="132"/><line class="cls-1" x1="8" y1="154" x2="392" y2="154"/><line class="cls-1" x1="56.6" y1="79.33" x2="69.4" y2="96"/><line class="cls-1" x1="69.4" y1="79.33" x2="56.6" y2="96"/><line class="cls-1" x1="56.6" y1="101.33" x2="69.4" y2="118"/><line class="cls-1" x1="69.4" y1="101.33" x2="56.6" y2="118"/><line class="cls-1" x1="56.6" y1="123.33" x2="69.4" y2="140"/><line class="cls-1" x1="69.4" y1="123.33" x2="56.6" y2="140"/><line class="cls-1" x1="134.6" y1="79.33" x2="147.4" y2="96"/><line class="cls-1" x1="147.4" y1="79.33" x2="134.6" y2="96"/><line class="cls-1" x1="134.6" y1="101.33" x2="147.4" y2="118"/><line class="cls-1" x1="147.4" y1="101.33" x2="134.6" y2="118"/><line class="cls-1" x1="134.6" y1="123.33" x2="147.4" y2="140"/><line class="cls-1" x1="147.4" y1="123.33" x2="134.6" y2="140"/><line class="cls-1" x1="173.6" y1="79.33" x2="186.4" y2="96"/><line class="cls-1" x1="186.4" y1="79.33" x2="173.6" y2="96"/><line class="cls-1" x1="173.6" y1="101.33" x2="186.4" y2="118"/><line class="cls-1" x1="186.4" y1="101.33" x2="173.6" y2="118"/><line class="cls-1" x1="173.6" y1="123.33" x2="186.4" y2="140"/><line class="cls-1" x1="186.4" y1="123.33" x2="173.6" y2="140"/><line class="cls-1" x1="252.6" y1="79.33" x2="265.4" y2="96"/><line class="cls-1" x1="265.4" y1="79.33" x2="252.6" y2="96"/><line class="cls-1" x1="252.6" y1="101.33" x2="265.4" y2="118"/><line class="cls-1" x1="265.4" y1="101.33" x2="252.6" y2="118"/><line class="cls-1" x1="252.6" y1="123.33" x2="265.4" y2="140"/><line class="cls-1" x1="265.4" y1="123.33" x2="252.6" y2="140"/><line class="cls-1" x1="290.6" y1="79.33" x2="303.4" y2="96"/><line class="cls-1" x1="303.4" y1="79.33" x2="290.6" y2="96"/><line class="cls-1" x1="290.6" y1="101.33" x2="303.4" y2="118"/><line class="cls-1" x1="303.4" y1="101.33" x2="290.6" y2="118"/><line class="cls-1" x1="290.6" y1="123.33" x2="303.4" y2="140"/><line class="cls-1" x1="303.4" y1="123.33" x2="290.6" y2="140"/><line class="cls-1" x1="329.6" y1="79.33" x2="342.4" y2="96"/><line class="cls-1" x1="342.4" y1="79.33" x2="329.6" y2="96"/><line class="cls-1" x1="329.6" y1="101.33" x2="342.4" y2="118"/><line class="cls-1" x1="342.4" y1="101.33" x2="329.6" y2="118"/><line class="cls-1" x1="329.6" y1="123.33" x2="342.4" y2="140"/><line class="cls-1" x1="342.4" y1="123.33" x2="329.6" y2="140"/><line class="cls-1" x1="180" y1="173" x2="180" y2="219"/><line class="cls-1" x1="63" y1="173" x2="63" y2="219"/><polyline class="cls-1" points="141 173 141 219 160 219"/><polyline class="cls-1" points="259 173 259 219 297 219"/><polyline class="cls-1" points="297 173 297 219 336 219 336 173"/><rect class="cls-2" x="141" y="214" width="19" height="5"/><rect class="cls-2" x="259" y="214" width="38" height="5"/><rect class="cls-2" x="297" y="214" width="39" height="5"/><line class="cls-1" x1="30" y1="44" x2="30" y2="154"/><line class="cls-1" x1="369" y1="44" x2="369" y2="154"/></svg>