<svg id="Layer_1" data-name="Layer 1" xmlns="http://www.w3.org/2000/svg" width="401" height="250" viewBox="0 0 401 250"><defs><style>.cls-1{fill:none;stroke:#1d1d1b;stroke-width:2px;}.cls-2{fill:#1d1d1b;}</style></defs><title>rythm</title><line class="cls-1" x1="9" y1="44" x2="393" y2="44"/><line class="cls-1" x1="9" y1="66" x2="393" y2="66"/><line class="cls-1" x1="135" y1="88" x2="71" y2="88"/><line class="cls-1" x1="253" y1="88" x2="188" y2="88"/><line class="cls-1" x1="330" y1="88" x2="305" y2="88"/><line class="cls-1" x1="393" y1="88" x2="344" y2="88"/><line class="cls-1" x1="291" y1="88" x2="267" y2="88"/><line class="cls-1" x1="174" y1="88" x2="149" y2="88"/><line class="cls-1" x1="57" y1="88" x2="9" y2="88"/><line class="cls-1" x1="135" y1="110" x2="71" y2="110"/><line class="cls-1" x1="253" y1="110" x2="188" y2="110"/><line class="cls-1" x1="330" y1="110" x2="305" y2="110"/><line class="cls-1" x1="393" y1="110" x2="344" y2="110"/><line class="cls-1" x1="291" y1="110" x2="267" y2="110"/><line class="cls-1" x1="174" y1="110" x2="149" y2="110"/><line class="cls-1" x1="57" y1="110" x2="9" y2="110"/><line class="cls-1" x1="135" y1="132" x2="71" y2="132"/><line class="cls-1" x1="253" y1="132" x2="188" y2="132"/><line class="cls-1" x1="330" y1="132" x2="305" y2="132"/><line class="cls-1" x1="393" y1="132" x2="344" y2="132"/><line class="cls-1" x1="291" y1="132" x2="267" y2="132"/><line class="cls-1" x1="174" y1="132" x2="149" y2="132"/><line class="cls-1" x1="57" y1="132" x2="9" y2="132"/><line class="cls-1" x1="9" y1="154" x2="393" y2="154"/><line class="cls-1" x1="57.6" y1="79.33" x2="70.4" y2="96"/><line class="cls-1" x1="70.4" y1="79.33" x2="57.6" y2="96"/><line class="cls-1" x1="57.6" y1="101.33" x2="70.4" y2="118"/><line class="cls-1" x1="70.4" y1="101.33" x2="57.6" y2="118"/><line class="cls-1" x1="57.6" y1="123.33" x2="70.4" y2="140"/><line class="cls-1" x1="70.4" y1="123.33" x2="57.6" y2="140"/><line class="cls-1" x1="135.6" y1="79.33" x2="148.4" y2="96"/><line class="cls-1" x1="148.4" y1="79.33" x2="135.6" y2="96"/><line class="cls-1" x1="135.6" y1="101.33" x2="148.4" y2="118"/><line class="cls-1" x1="148.4" y1="101.33" x2="135.6" y2="118"/><line class="cls-1" x1="135.6" y1="123.33" x2="148.4" y2="140"/><line class="cls-1" x1="148.4" y1="123.33" x2="135.6" y2="140"/><line class="cls-1" x1="174.6" y1="79.33" x2="187.4" y2="96"/><line class="cls-1" x1="187.4" y1="79.33" x2="174.6" y2="96"/><line class="cls-1" x1="174.6" y1="101.33" x2="187.4" y2="118"/><line class="cls-1" x1="187.4" y1="101.33" x2="174.6" y2="118"/><line class="cls-1" x1="174.6" y1="123.33" x2="187.4" y2="140"/><line class="cls-1" x1="187.4" y1="123.33" x2="174.6" y2="140"/><line class="cls-1" x1="253.6" y1="79.33" x2="266.4" y2="96"/><line class="cls-1" x1="266.4" y1="79.33" x2="253.6" y2="96"/><line class="cls-1" x1="253.6" y1="101.33" x2="266.4" y2="118"/><line class="cls-1" x1="266.4" y1="101.33" x2="253.6" y2="118"/><line class="cls-1" x1="253.6" y1="123.33" x2="266.4" y2="140"/><line class="cls-1" x1="266.4" y1="123.33" x2="253.6" y2="140"/><line class="cls-1" x1="291.6" y1="79.33" x2="304.4" y2="96"/><line class="cls-1" x1="304.4" y1="79.33" x2="291.6" y2="96"/><line class="cls-1" x1="291.6" y1="101.33" x2="304.4" y2="118"/><line class="cls-1" x1="304.4" y1="101.33" x2="291.6" y2="118"/><line class="cls-1" x1="291.6" y1="123.33" x2="304.4" y2="140"/><line class="cls-1" x1="304.4" y1="123.33" x2="291.6" y2="140"/><line class="cls-1" x1="330.6" y1="79.33" x2="343.4" y2="96"/><line class="cls-1" x1="343.4" y1="79.33" x2="330.6" y2="96"/><line class="cls-1" x1="330.6" y1="101.33" x2="343.4" y2="118"/><line class="cls-1" x1="343.4" y1="101.33" x2="330.6" y2="118"/><line class="cls-1" x1="330.6" y1="123.33" x2="343.4" y2="140"/><line class="cls-1" x1="343.4" y1="123.33" x2="330.6" y2="140"/><line class="cls-1" x1="181" y1="173" x2="181" y2="219"/><line class="cls-1" x1="64" y1="173" x2="64" y2="219"/><polyline class="cls-1" points="142 173 142 219 161 219"/><polyline class="cls-1" points="260 173 260 219 298 219"/><polyline class="cls-1" points="298 173 298 219 337 219 337 173"/><rect class="cls-2" x="142" y="214" width="19" height="5"/><rect class="cls-2" x="260" y="214" width="38" height="5"/><rect class="cls-2" x="298" y="214" width="39" height="5"/><line class="cls-1" x1="31" y1="44" x2="31" y2="154"/><line class="cls-1" x1="370" y1="44" x2="370" y2="154"/></svg>