<svg id="Layer_1" data-name="Layer 1" xmlns="http://www.w3.org/2000/svg" width="401" height="250" viewBox="0 0 401 250"><defs><style>.cls-1{fill:none;stroke:#1d1d1b;stroke-width:2px;}.cls-2{fill:#1d1d1b;}</style></defs><title>rythm</title><line class="cls-1" x1="9" y1="44" x2="393" y2="44"/><line class="cls-1" x1="9" y1="66" x2="393" y2="66"/><line class="cls-1" x1="291" y1="88" x2="149" y2="88"/><line class="cls-1" x1="393" y1="88" x2="305" y2="88"/><line class="cls-1" x1="135" y1="88" x2="9" y2="88"/><line class="cls-1" x1="96" y1="110" x2="71" y2="110"/><line class="cls-1" x1="213" y1="110" x2="188" y2="110"/><line class="cls-1" x1="330" y1="110" x2="266" y2="110"/><line class="cls-1" x1="393" y1="110" x2="344" y2="110"/><line class="cls-1" x1="252" y1="110" x2="227" y2="110"/><line class="cls-1" x1="174" y1="110" x2="110" y2="110"/><line class="cls-1" x1="57" y1="110" x2="9" y2="110"/><line class="cls-1" x1="96" y1="132" x2="71" y2="132"/><line class="cls-1" x1="213" y1="132" x2="188" y2="132"/><line class="cls-1" x1="330" y1="132" x2="266" y2="132"/><line class="cls-1" x1="393" y1="132" x2="344" y2="132"/><line class="cls-1" x1="252" y1="132" x2="227" y2="132"/><line class="cls-1" x1="174" y1="132" x2="110" y2="132"/><line class="cls-1" x1="57" y1="132" x2="9" y2="132"/><line class="cls-1" x1="96" y1="154" x2="71" y2="154"/><line class="cls-1" x1="213" y1="154" x2="188" y2="154"/><line class="cls-1" x1="330" y1="154" x2="266" y2="154"/><line class="cls-1" x1="393" y1="154" x2="344" y2="154"/><line class="cls-1" x1="252" y1="154" x2="227" y2="154"/><line class="cls-1" x1="174" y1="154" x2="110" y2="154"/><line class="cls-1" x1="57" y1="154" x2="9" y2="154"/><line class="cls-1" x1="57.6" y1="101.33" x2="70.4" y2="118"/><line class="cls-1" x1="70.4" y1="101.33" x2="57.6" y2="118"/><line class="cls-1" x1="57.6" y1="123.33" x2="70.4" y2="140"/><line class="cls-1" x1="70.4" y1="123.33" x2="57.6" y2="140"/><line class="cls-1" x1="57.6" y1="145.33" x2="70.4" y2="162"/><line class="cls-1" x1="70.4" y1="145.33" x2="57.6" y2="162"/><line class="cls-1" x1="96.6" y1="101.33" x2="109.4" y2="118"/><line class="cls-1" x1="109.4" y1="101.33" x2="96.6" y2="118"/><line class="cls-1" x1="96.6" y1="123.33" x2="109.4" y2="140"/><line class="cls-1" x1="109.4" y1="123.33" x2="96.6" y2="140"/><line class="cls-1" x1="96.6" y1="145.33" x2="109.4" y2="162"/><line class="cls-1" x1="109.4" y1="145.33" x2="96.6" y2="162"/><line class="cls-1" x1="174.6" y1="101.33" x2="187.4" y2="118"/><line class="cls-1" x1="187.4" y1="101.33" x2="174.6" y2="118"/><line class="cls-1" x1="174.6" y1="123.33" x2="187.4" y2="140"/><line class="cls-1" x1="187.4" y1="123.33" x2="174.6" y2="140"/><line class="cls-1" x1="174.6" y1="145.33" x2="187.4" y2="162"/><line class="cls-1" x1="187.4" y1="145.33" x2="174.6" y2="162"/><line class="cls-1" x1="213.6" y1="101.33" x2="226.4" y2="118"/><line class="cls-1" x1="226.4" y1="101.33" x2="213.6" y2="118"/><line class="cls-1" x1="213.6" y1="123.33" x2="226.4" y2="140"/><line class="cls-1" x1="226.4" y1="123.33" x2="213.6" y2="140"/><line class="cls-1" x1="213.6" y1="145.33" x2="226.4" y2="162"/><line class="cls-1" x1="226.4" y1="145.33" x2="213.6" y2="162"/><line class="cls-1" x1="252.6" y1="101.33" x2="265.4" y2="118"/><line class="cls-1" x1="265.4" y1="101.33" x2="252.6" y2="118"/><line class="cls-1" x1="252.6" y1="123.33" x2="265.4" y2="140"/><line class="cls-1" x1="265.4" y1="123.33" x2="252.6" y2="140"/><line class="cls-1" x1="252.6" y1="145.33" x2="265.4" y2="162"/><line class="cls-1" x1="265.4" y1="145.33" x2="252.6" y2="162"/><line class="cls-1" x1="330.6" y1="101.33" x2="343.4" y2="118"/><line class="cls-1" x1="343.4" y1="101.33" x2="330.6" y2="118"/><line class="cls-1" x1="330.6" y1="123.33" x2="343.4" y2="140"/><line class="cls-1" x1="343.4" y1="123.33" x2="330.6" y2="140"/><line class="cls-1" x1="330.6" y1="145.33" x2="343.4" y2="162"/><line class="cls-1" x1="343.4" y1="145.33" x2="330.6" y2="162"/><line class="cls-1" x1="135.6" y1="96" x2="148.4" y2="79.33"/><circle class="cls-2" cx="138.5" cy="82.5" r="3.5"/><line class="cls-1" x1="140" y1="84" x2="145.97" y2="82"/><line class="cls-1" x1="291.6" y1="96" x2="304.4" y2="79.33"/><circle class="cls-2" cx="294.5" cy="82.5" r="3.5"/><line class="cls-1" x1="296" y1="84" x2="301.97" y2="82"/><polyline class="cls-1" points="64 173 64 219 103 219 103 173"/><polyline class="cls-1" points="181 173 181 219 220 219"/><polyline class="cls-1" points="220 173 220 219 259 219 259 173"/><polyline class="cls-1" points="337 173 337 219 356 219"/><rect class="cls-2" x="64" y="214" width="39" height="5"/><rect class="cls-2" x="181" y="214" width="39" height="5"/><rect class="cls-2" x="220" y="214" width="39" height="5"/><rect class="cls-2" x="337" y="214" width="19" height="5"/><line class="cls-1" x1="31" y1="44" x2="31" y2="154"/><line class="cls-1" x1="370" y1="44" x2="370" y2="154"/></svg>